# xmcd CD Database Entry
#
# Track frame offsets:
# 150
# 11727
# 26852
# 38677
# 53232
# 66875
# 82045
# 93377
# 106027
# 121227
# 132445
# 146632
# 156755
# 171447
# 183175
# 193680
# 205562
# 215417
#
# Disc length: 3063 seconds
#
# Revision: 3
# Processed by: cddbd v1.4PL0 Copyright (c) Steve Scherf et al.
# Submitted via: tcd 2.0b
#
DISCID=fb0bf512
DTITLE=Charles Trenet - La Mer
DYEAR=1900
DGENRE=
TTITLE0=Hop! Hop!
TTITLE1=La mer
TTITLE2=J'ai ta main
TTITLE3=Que reste-t-il de nos amours?
TTITLE4=Vous oubliez votre cheval
TTITLE5=Pigeon vole
TTITLE6=Les enfants s'ennuient le dimanche
TTITLE7=J'ai connu de vous
TTITLE8=Près de toi, mon amour
TTITLE9=Je n'y suis pour personne
TTITLE10=Les oiseaux de Paris
TTITLE11=La vielle
TTITLE12=Si vous aimlez
TTITLE13=Boum!
TTITLE14=Vous être jolie
TTITLE15=Il pleut dans ma chambre
TTITLE16=La route enchantée
TTITLE17=Au clair de la lune (Variations)
EXTD=
EXTT0=
EXTT1=
EXTT2=
EXTT3=
EXTT4=
EXTT5=
EXTT6=
EXTT7=
EXTT8=
EXTT9=
EXTT10=
EXTT11=
EXTT12=
EXTT13=
EXTT14=
EXTT15=
EXTT16=
EXTT17=
PLAYORDER=
